<svg width="386" height="200" viewBox="0 0 386 200" fill="none" xmlns="http://www.w3.org/2000/svg">
<rect width="360" height="200" rx="4" fill="white"/>
<path d="M325.674 75.8944L317.701 77.986C317.226 78.1108 316.941 78.5974 317.066 79.073C317.191 79.5486 317.678 79.8329 318.153 79.7082L326.126 77.6165C326.602 77.4917 326.886 77.0051 326.761 76.5295C326.637 76.054 326.15 75.7696 325.674 75.8944Z" fill="#FFD200"/>
<path opacity="0.3" d="M287.68 185.112C313.901 185.112 335.158 182.073 335.158 178.324C335.158 174.576 313.901 171.537 287.68 171.537C261.458 171.537 240.201 174.576 240.201 178.324C240.201 182.073 261.458 185.112 287.68 185.112Z" fill="#E6E6E6"/>
<path d="M288.537 170.793C288.537 170.793 293.218 169.992 293.991 174.75C294.006 174.848 294.001 174.949 293.977 175.046C293.952 175.143 293.908 175.234 293.847 175.314C293.786 175.394 293.71 175.46 293.623 175.51C293.536 175.559 293.44 175.591 293.341 175.602C291.258 175.849 289.15 175.814 287.076 175.498C283.44 174.905 285.55 170.397 288.537 170.793Z" fill="#EFEFEF"/>
<path d="M262.33 176.102C262.33 176.102 263.389 168.613 268.924 166.606L280.93 164.491C280.93 164.491 289.488 165.25 289.144 175.668C280.306 177.43 271.221 177.577 262.33 176.102Z" fill="#E6E6E6"/>
<path d="M311.993 134.996C311.993 134.996 304.768 133.112 305.489 137.12V164.124H308.051C308.489 164.124 308.91 163.949 309.22 163.639C309.53 163.329 309.704 162.909 309.704 162.47V155.975C310.481 155.871 311.339 155.419 311.565 153.992C312.003 151.241 311.565 138.943 311.565 138.943C311.565 138.943 317.066 137.784 320.25 139.523V135.9L311.993 134.996Z" fill="#FFD200"/>
<path d="M307.905 72.3377C307.905 72.3377 320.839 82.7518 320.151 103.957C320.151 103.957 327.984 79.2474 320.349 66.4453L307.905 72.3377Z" fill="#FFD200"/>
<path opacity="0.46" d="M307.905 72.3377C307.905 72.3377 320.839 82.7518 320.151 103.957C320.151 103.957 327.984 79.2474 320.349 66.4453L307.905 72.3377Z" fill="white"/>
<path d="M270.252 91.3191C270.252 91.3191 258.948 113.169 272.857 116.137C286.766 119.104 290.684 101.408 290.684 101.408C290.684 101.408 288.475 92.93 284.787 93.1231C281.099 93.3162 277.694 99.9904 275.659 104.842C275.52 105.175 275.274 105.453 274.961 105.633C274.648 105.813 274.284 105.885 273.925 105.837C273.567 105.79 273.235 105.625 272.979 105.369C272.724 105.114 272.56 104.781 272.513 104.423C272.042 100.989 270.85 96.4155 273.111 92.2988C273.111 92.2988 276.257 90.3818 275.174 87.7865C274.091 85.1912 270.252 87.4144 270.252 91.3191Z" fill="#F4A28C"/>
<path opacity="0.58" d="M321.079 171.862C321.079 171.862 317.589 170.92 316.84 167.661C316.84 167.661 322.247 166.568 322.402 172.149L321.079 171.862Z" fill="#D2D2D2"/>
<path opacity="0.73" d="M321.503 171.537C321.503 171.537 319.068 167.679 321.211 164.076C321.211 164.076 325.323 166.69 323.495 171.546L321.503 171.537Z" fill="#D2D2D2"/>
<path d="M322.134 171.537C322.134 171.537 323.42 167.468 327.315 166.695C327.315 166.695 328.045 169.342 324.795 171.551L322.134 171.537Z" fill="#D2D2D2"/>
<path d="M319.6 171.447L320.311 176.289L324.767 176.308L325.422 171.471L319.6 171.447Z" fill="#24285B"/>
<path d="M266.997 98.2753L272.207 99.3256L273.149 92.317C273.149 92.317 275.975 90.8286 275.914 89.0528C275.923 88.679 275.844 88.3082 275.683 87.9704C275.523 87.6326 275.285 87.3372 274.989 87.1081C274.694 86.879 274.348 86.7225 273.981 86.6512C273.614 86.5799 273.235 86.5959 272.876 86.6978C270.991 87.2206 270.238 90.221 269.621 92.3264C269.004 94.4318 266.997 98.2753 266.997 98.2753Z" fill="#24285B"/>
<path d="M317.318 78.0923L260.916 92.8893C260.44 93.0141 260.156 93.5008 260.28 93.9763C260.405 94.4519 260.892 94.7362 261.367 94.6115L317.77 79.8145C318.246 79.6897 318.53 79.2031 318.405 78.7275C318.28 78.252 317.794 77.9676 317.318 78.0923Z" fill="#FFD200"/>
<path d="M278.099 101.926C278.06 100.694 278.266 99.467 278.705 98.3151C279.143 97.1632 279.806 96.1097 280.655 95.2157C281.503 94.3216 282.521 93.6047 283.648 93.1065C284.775 92.6082 285.99 92.3386 287.223 92.313C293.661 92.1811 303.708 89.0724 307.519 94.7952C313.34 103.594 303.92 128.35 303.92 128.35H286.516C286.516 128.35 278.434 111.747 278.099 101.926Z" fill="#D2D2D2"/>
<path d="M290.807 83.2793L293.435 92.5347L287.934 94.7956L288.136 86.8072L290.807 83.2793Z" fill="#F4A28C"/>
<path opacity="0.31" d="M288.019 88.5536C288.73 88.2842 289.346 87.8107 289.79 87.1924C289.79 87.1924 289.936 89.1518 288.028 91.3279L288.019 88.5536Z" fill="#CE8172"/>
<path d="M284.806 83.58C284.806 83.58 285.08 86.8394 286.022 88.8742C286.111 89.0711 286.238 89.2484 286.397 89.396C286.555 89.5436 286.74 89.6585 286.943 89.7342C287.145 89.8099 287.361 89.8449 287.577 89.8371C287.793 89.8294 288.006 89.7791 288.202 89.689C289.22 89.218 290.463 88.276 290.52 86.505L290.991 83.5235C291.02 82.9164 290.86 82.3152 290.534 81.8024C290.207 81.2896 289.73 80.8905 289.168 80.6597C287.105 79.6753 284.528 81.6065 284.806 83.58Z" fill="#F4A28C"/>
<path d="M285.631 83.5705C286.632 83.4339 287.613 83.181 288.556 82.8168C288.345 83.3049 288.283 83.8439 288.376 84.3671C288.469 84.8903 288.713 85.3748 289.078 85.7607C289.425 86.1422 289.894 86.3913 290.405 86.4652C290.915 86.5391 291.435 86.4332 291.876 86.1657L291.09 82.0397C290.996 81.4452 290.744 80.8869 290.359 80.4242C289.974 79.9615 289.472 79.6115 288.904 79.4114C288.415 79.2339 287.915 79.0891 287.406 78.9781C286.13 78.7143 284.528 79.8165 283.318 79.2042C283.196 79.1433 283.06 79.1149 282.924 79.1219C282.788 79.1288 282.656 79.1708 282.541 79.2438C282.426 79.3167 282.331 79.4182 282.267 79.5384C282.203 79.6585 282.17 79.7932 282.173 79.9295C282.211 81.2248 282.79 83.1607 284.613 83.5469C284.949 83.6113 285.292 83.6192 285.631 83.5705Z" fill="#24285B"/>
<path d="M288.716 85.7283C288.716 85.7283 288.523 84.4848 289.469 84.4141C290.416 84.3435 290.713 86.138 289.469 86.5337L288.716 85.7283Z" fill="#F4A28C"/>
<path d="M285.079 85.624L284.406 87.0371C284.368 87.1167 284.35 87.2048 284.355 87.293C284.36 87.3812 284.388 87.4667 284.435 87.5415C284.482 87.6163 284.547 87.6779 284.624 87.7207C284.702 87.7634 284.789 87.7859 284.877 87.786H286.149L285.079 85.624Z" fill="#F4A28C"/>
<path d="M271.448 89.0346C271.448 89.0346 270.85 90.9516 272.965 90.6784C275.08 90.4052 275.678 90.2074 275.895 89.0346C276.111 87.8618 272.098 87.7723 271.448 89.0346Z" fill="#F4A28C"/>
<path d="M286.158 92.299C286.158 92.299 285.965 90.7305 288.042 90.707C288.808 91.0525 289.659 91.1608 290.487 91.0181C291.315 90.8754 292.081 90.4882 292.686 89.9063C292.686 89.9063 296.638 89.8686 296.958 93.0432C297.279 96.2178 289.79 104.31 289.79 104.31C289.79 104.31 285.24 97.8287 286.158 92.299Z" fill="#D2D2D2"/>
<path opacity="0.09" d="M299.907 97.1025C299.111 98.1077 298.532 99.2673 298.208 100.508C297.884 101.748 297.821 103.043 298.023 104.309C298.781 108.478 305.159 120.234 298.244 128.331H303.896C303.788 128.712 307.156 118.147 308.098 113.913C308.677 111.351 299.907 97.1025 299.907 97.1025Z" fill="black"/>
<path opacity="0.68" d="M286.158 92.299C286.158 92.299 285.965 90.7305 288.042 90.707C288.808 91.0525 289.659 91.1608 290.487 91.0181C291.315 90.8754 292.081 90.4882 292.686 89.9063C292.686 89.9063 296.638 89.8686 296.958 93.0432C297.279 96.2178 289.79 104.31 289.79 104.31C289.79 104.31 285.24 97.8287 286.158 92.299Z" fill="white"/>
<path d="M299.879 99.9102C298.701 95.12 303.925 91.2389 308.131 93.8106C311.734 96.015 315.196 100.165 316.091 107.974C318.083 125.628 316.091 134.454 316.091 134.454L312.365 133.734C312.365 133.734 309.539 110.701 304.188 107.418C301.942 106.038 300.623 102.986 299.879 99.9102Z" fill="#F4A28C"/>
<path d="M303.312 106.754C303.312 106.754 311.06 104.357 314.899 101.173C314.899 101.173 316.199 104.79 316.091 107.974C313.233 109.464 310.206 110.606 307.076 111.375C305.709 109.93 304.451 108.385 303.312 106.754Z" fill="#24285B"/>
<path d="M312.365 133.733C312.365 133.733 309.982 140.502 313.453 140.507C318.766 140.507 316.091 134.454 316.091 134.454L312.365 133.733Z" fill="#24285B"/>
<path opacity="0.46" d="M310.411 139.546C310.411 138.601 309.645 137.836 308.701 137.836C307.756 137.836 306.991 138.601 306.991 139.546V152.786C306.991 153.73 307.756 154.496 308.701 154.496C309.645 154.496 310.411 153.73 310.411 152.786V139.546Z" fill="white"/>
<path d="M286.516 128.35C286.516 128.35 264.378 132.41 268.081 143.672C271.783 154.934 274.811 160.36 274.811 160.36L279.338 158.188L277.487 146.225C277.392 145.615 277.423 144.992 277.576 144.395C277.73 143.797 278.004 143.237 278.381 142.749C278.759 142.261 279.231 141.854 279.771 141.555C280.31 141.255 280.905 141.068 281.519 141.006C289.568 140.181 304.862 137.417 303.901 128.35H286.516Z" fill="#24285B"/>
<path d="M303.92 128.35L302.799 171.212H297.9C297.9 171.212 298.117 144.237 289.578 133.455L303.92 128.35Z" fill="#24285B"/>
<path d="M268.938 148.669L277.487 146.225L280.129 160.36L280.944 164.486L268.938 166.601L274.486 161.768L268.938 148.669Z" fill="#D2D2D2"/>
<path d="M279.338 130.361L283.911 141.039L289.239 140.031L284.632 128.765C282.819 129.119 281.045 129.654 279.338 130.361Z" fill="#FFD200"/>
<path d="M296.52 153.846L303.218 154.5L303.1 169.441C303.092 170.556 303.438 171.645 304.089 172.55L306.991 176.567L299.393 175.281L296.52 174.613L297.547 170.793L296.52 153.846Z" fill="#D2D2D2"/>
<path d="M259.48 172.163C261.962 169.62 268.844 169.912 269.762 172.677C270.111 173.722 270.384 174.763 270.586 175.658C270.667 176.008 270.677 176.37 270.617 176.724C270.557 177.078 270.428 177.416 270.238 177.72C270.047 178.024 269.798 178.288 269.506 178.496C269.213 178.704 268.883 178.852 268.533 178.932C265.297 179.671 252.047 179.78 259.48 172.163Z" fill="#D3D3D3"/>
<path d="M275.207 149.037L278.429 148.241L280.562 160.36L277.887 160.902L275.207 149.037Z" fill="#D2D2D2"/>
<path opacity="0.35" d="M275.207 149.037L278.429 148.241L280.562 160.36L277.887 160.902L275.207 149.037Z" fill="white"/>
<path d="M283.563 121.671C283.563 121.671 284.867 126.08 286.516 128.35H303.92C304.789 126.169 305.528 123.939 306.134 121.671C306.134 121.671 297.528 123.63 283.563 121.671Z" fill="#FFD200"/>
<path d="M305.606 124.704H297.608V132.702H305.606V124.704Z" fill="#FFD200"/>
<path opacity="0.09" d="M305.606 124.704H297.608V132.702H305.606V124.704Z" fill="black"/>
<path d="M301.607 128.525C302.172 128.525 302.629 128.067 302.629 127.503C302.629 126.938 302.172 126.48 301.607 126.48C301.043 126.48 300.585 126.938 300.585 127.503C300.585 128.067 301.043 128.525 301.607 128.525Z" fill="white"/>
</svg>
