<svg width="163" height="178" viewBox="0 0 163 178" fill="none" xmlns="http://www.w3.org/2000/svg">
<path d="M88.6026 139.162C87.4721 139.211 86.317 139.26 85.1373 139.309C84.0068 139.358 82.8517 139.383 81.672 139.383C72.2345 139.383 63.5834 137.933 55.7189 135.033C47.8543 132.083 41.5626 127.684 36.8439 121.835C32.1743 115.986 29.8395 108.613 29.8395 99.7158C29.8395 97.6514 30.0607 95.6606 30.503 93.7437C30.9454 91.8267 31.5598 89.9834 32.3463 88.2139C31.8056 87.5257 31.1175 86.9604 30.2818 86.5181C29.4462 86.0757 28.4632 85.707 27.3326 85.4121C26.2021 85.068 24.8258 84.7977 23.2037 84.6011C22.2698 86.9113 21.5325 89.3444 20.9918 91.9004C20.5003 94.4072 20.2545 96.9878 20.2545 99.6421C20.2545 107.605 21.8274 114.634 24.9733 120.729C28.1191 126.824 32.4692 131.985 38.0235 136.212C43.6271 140.39 50.1153 143.536 57.4884 145.65C64.8614 147.764 72.7752 148.82 81.2296 148.82C82.8517 148.82 84.4492 148.796 86.0221 148.747C87.6441 148.648 89.2662 148.525 90.8883 148.378L88.6026 139.162ZM63.6817 44.9341C63.9275 46.4087 64.1733 47.7113 64.4191 48.8418C64.714 49.9723 65.0335 50.98 65.3775 51.8647C65.7708 52.7004 66.2132 53.4131 66.7047 54.0029C71.6692 51.9876 76.8303 50.4393 82.1881 49.3579C87.595 48.2765 93.0019 47.7358 98.4088 47.7358C105.782 47.7358 112.737 48.8172 119.275 50.98C125.861 53.1427 131.686 56.264 136.749 60.3438C141.811 64.3743 145.793 69.216 148.693 74.8687C151.642 80.5213 153.117 86.813 153.117 93.7437C153.117 100.134 151.568 106.18 148.472 111.881C145.375 117.583 141.246 122.621 136.085 126.996C130.924 131.371 125.173 134.812 118.832 137.318C112.491 139.825 106.077 141.079 99.5885 141.079C96.9833 141.079 94.8206 140.612 93.1002 139.678C91.429 138.695 90.5934 137.343 90.5934 135.623C90.5934 133.558 91.4536 131.764 93.1739 130.24C94.9435 128.716 97.2291 127.537 100.031 126.701C102.833 125.866 105.905 125.448 109.247 125.448C113.278 125.448 116.915 126.357 120.159 128.176C123.403 129.994 125.959 132.501 127.827 135.696C129.695 138.891 130.629 142.504 130.629 146.535C130.629 150.909 129.449 155.063 127.09 158.995C124.78 162.927 121.56 166.147 117.431 168.654C116.546 169.293 115.809 169.981 115.219 170.718C114.63 171.456 114.335 172.389 114.335 173.52C114.335 174.7 114.752 175.732 115.588 176.617C116.473 177.501 117.677 177.944 119.201 177.944C120.331 177.944 121.486 177.551 122.666 176.764C128.024 173.373 132.276 168.949 135.421 163.493C138.616 158.037 140.214 152.335 140.214 146.387C140.214 140.538 138.789 135.328 135.938 130.756C133.136 126.136 129.351 122.499 124.583 119.844C119.815 117.141 114.457 115.789 108.51 115.789C103.398 115.789 98.7529 116.649 94.5748 118.37C90.4459 120.041 87.1526 122.376 84.6949 125.374C82.2372 128.372 81.0084 131.862 81.0084 135.844C81.0084 138.891 81.7703 141.521 83.2941 143.733C84.867 145.896 87.0543 147.591 89.8561 148.82C92.6578 150.049 95.902 150.664 99.5885 150.664C105.782 150.664 111.926 149.705 118.021 147.788C124.116 145.822 129.843 143.094 135.2 139.604C140.558 136.065 145.301 131.911 149.43 127.144C153.559 122.376 156.779 117.165 159.089 111.513C161.448 105.86 162.628 99.937 162.628 93.7437C162.628 85.4858 160.932 77.9899 157.541 71.2559C154.149 64.4727 149.504 58.5988 143.606 53.6343C137.707 48.6698 130.875 44.8358 123.109 42.1323C115.342 39.4289 107.084 38.0771 98.3351 38.0771C92.4366 38.0771 86.5382 38.667 80.6398 39.8467C74.7905 41.0264 69.1378 42.7222 63.6817 44.9341ZM50.7052 109.153C52.2781 109.153 53.212 108.342 53.5069 106.72C54.4409 101.608 55.3256 97.3319 56.1612 93.8911C56.9969 90.4504 58.0537 87.6486 59.3316 85.4858C60.6096 83.2739 62.3054 81.529 64.4191 80.251C66.5327 78.973 69.2361 77.9408 72.5294 77.1543C75.8719 76.3678 80.0745 75.6305 85.1373 74.9424C85.9238 74.8441 86.5628 74.5492 87.0543 74.0576C87.5458 73.5169 87.7916 72.9025 87.7916 72.2144C87.7916 70.5923 86.9068 69.6584 85.1373 69.4126C80.1236 68.7736 75.921 68.0609 72.5294 67.2744C69.1378 66.488 66.3606 65.4557 64.1979 64.1777C62.0351 62.8997 60.2901 61.1794 58.963 59.0166C57.685 56.8047 56.6282 53.9784 55.7926 50.5376C54.957 47.0968 54.1951 42.8205 53.5069 37.7085C53.2612 35.9881 52.3273 35.1279 50.7052 35.1279C49.0831 35.1279 48.1492 35.9635 47.9034 37.6348C46.9695 42.7467 46.0847 47.0477 45.2491 50.5376C44.4135 53.9784 43.3567 56.7801 42.0787 58.9429C40.8007 61.1056 39.0803 62.8506 36.9176 64.1777C34.804 65.4557 32.076 66.488 28.7335 67.2744C25.4402 68.0609 21.2622 68.7736 16.1993 69.4126C15.462 69.5109 14.8476 69.8304 14.3561 70.3711C13.8645 70.8626 13.6188 71.4771 13.6188 72.2144C13.6188 73.8364 14.4789 74.7458 16.1993 74.9424C21.2622 75.6305 25.4648 76.3678 28.8072 77.1543C32.1988 77.8916 34.976 78.8993 37.1388 80.1772C39.3015 81.4552 41.0219 83.2002 42.2999 85.4121C43.6271 87.5749 44.7084 90.3766 45.5441 93.8174C46.3797 97.2581 47.1661 101.535 47.9034 106.646C48.1492 108.318 49.0831 109.153 50.7052 109.153ZM19.1485 57.7632C20.3774 57.7632 21.1393 57.1488 21.4342 55.9199C21.9257 52.9707 22.3681 50.6605 22.7613 48.9893C23.1546 47.2689 23.7198 45.9909 24.4571 45.1553C25.2436 44.2705 26.497 43.6069 28.2174 43.1646C29.9378 42.673 32.42 42.1815 35.6642 41.6899C36.9422 41.4933 37.5812 40.756 37.5812 39.478C37.5812 38.2492 36.9422 37.5119 35.6642 37.2661C32.42 36.7746 29.9378 36.283 28.2174 35.7915C26.497 35.3 25.2436 34.6364 24.4571 33.8008C23.7198 32.916 23.1546 31.638 22.7613 29.9668C22.3681 28.2956 21.9257 26.0345 21.4342 23.1836C21.1393 21.8564 20.3774 21.1929 19.1485 21.1929C17.9689 21.1929 17.2561 21.8564 17.0104 23.1836C16.4697 26.0345 16.0027 28.2956 15.6095 29.9668C15.2163 31.638 14.6264 32.916 13.84 33.8008C13.0535 34.6364 11.8001 35.3 10.0797 35.7915C8.40847 36.283 5.97537 36.7746 2.78038 37.2661C1.45323 37.5119 0.789658 38.2492 0.789658 39.478C0.789658 40.756 1.50239 41.4933 2.92784 41.6899C6.07367 42.1815 8.4822 42.673 10.1534 43.1646C11.8247 43.6069 13.0535 44.2705 13.84 45.1553C14.6264 45.9909 15.2163 47.2443 15.6095 48.9155C16.0027 50.5376 16.4697 52.7987 17.0104 55.6987C17.3053 57.075 18.018 57.7632 19.1485 57.7632ZM41.8575 26.0591C42.6931 26.0591 43.1847 25.6413 43.3321 24.8057C43.8237 22.2005 44.2415 20.3081 44.5856 19.1284C44.9788 17.8996 45.7898 17.0148 47.0187 16.4741C48.2475 15.9334 50.312 15.3927 53.212 14.8521C54.0968 14.6554 54.5392 14.1639 54.5392 13.3774C54.5392 12.5418 54.0968 12.0749 53.212 11.9766C50.2628 11.3867 48.1738 10.8215 46.9449 10.2808C45.7161 9.74007 44.9051 8.87988 44.5118 7.7002C44.1678 6.47135 43.7745 4.57894 43.3321 2.02295C43.1847 1.13818 42.6931 0.695801 41.8575 0.695801C41.1202 0.695801 40.6533 1.13818 40.4566 2.02295C39.916 4.57894 39.449 6.47135 39.0558 7.7002C38.6625 8.87988 37.8761 9.74007 36.6964 10.2808C35.5167 10.8215 33.4523 11.3867 30.503 11.9766C29.6183 12.0749 29.1759 12.5418 29.1759 13.3774C29.1759 14.1639 29.6428 14.6554 30.5768 14.8521C33.526 15.3436 35.5659 15.8597 36.6964 16.4004C37.8761 16.8919 38.6625 17.7521 39.0558 18.981C39.449 20.2098 39.916 22.1022 40.4566 24.6582C40.6533 25.5921 41.1202 26.0591 41.8575 26.0591Z" fill="#F9F9FA"/>
</svg>
