<svg width="188" height="130" viewBox="0 0 188 130" fill="none" xmlns="http://www.w3.org/2000/svg">
<path d="M21.8177 129.608H138.386C144.579 129.608 149.371 127.838 152.763 124.299C156.155 120.76 157.85 115.501 157.85 108.521V79.4712C156.572 79.6187 154.975 79.717 153.058 79.7661C151.141 79.7661 149.347 79.6678 147.676 79.4712V108.079C147.676 111.814 146.693 114.641 144.726 116.558C142.76 118.475 139.983 119.433 136.395 119.433H21.9652C18.3278 119.433 15.5261 118.475 13.5599 116.558C11.6429 114.641 10.6844 111.79 10.6844 108.005V23.8047C10.6844 20.2656 11.5692 17.6113 13.3387 15.8418C15.1574 14.0231 17.7872 13.1138 21.2279 13.1138H36.4901C38.8986 13.1138 40.8894 13.4333 42.4623 14.0723C44.0844 14.6621 45.8293 15.7681 47.6971 17.3901L51.7523 20.8555C54.0134 22.7233 56.2253 24.0505 58.3881 24.8369C60.5508 25.5742 63.3526 25.9429 66.7933 25.9429H109.188C109.582 24.1733 110.024 22.4775 110.516 20.8555C111.056 19.2334 111.769 17.5376 112.654 15.7681H69.4476C66.9408 15.7681 64.8763 15.4731 63.2543 14.8833C61.6322 14.2443 59.9118 13.1629 58.0931 11.6392L53.8905 8.17383C51.6294 6.15853 49.4421 4.8068 47.3285 4.11865C45.264 3.38135 42.4869 3.0127 38.9969 3.0127H19.1635C13.1667 3.0127 8.54626 4.68392 5.30212 8.02637C2.05798 11.3688 0.435913 16.4316 0.435913 23.2148V108.521C0.435913 115.55 2.20544 120.809 5.74451 124.299C9.33272 127.838 14.6905 129.608 21.8177 129.608ZM6.62927 51.5273H110.884C110.294 50.0036 109.803 48.4552 109.41 46.8823C109.016 45.2603 108.721 43.6136 108.525 41.9424H6.62927V51.5273ZM152.247 70.8447C156.966 70.8447 161.439 69.9354 165.666 68.1167C169.893 66.2489 173.629 63.6929 176.873 60.4487C180.117 57.2046 182.648 53.4689 184.467 49.2417C186.335 45.0145 187.269 40.4924 187.269 35.6753C187.269 29.2853 185.671 23.436 182.476 18.1274C179.331 12.8188 175.079 8.56706 169.721 5.37207C164.412 2.17708 158.588 0.57959 152.247 0.57959C145.808 0.57959 139.934 2.17708 134.625 5.37207C129.317 8.56706 125.065 12.8188 121.87 18.1274C118.675 23.436 117.078 29.2853 117.078 35.6753C117.078 40.5415 117.987 45.0882 119.806 49.3154C121.624 53.5426 124.156 57.2783 127.4 60.5225C130.644 63.7666 134.38 66.298 138.607 68.1167C142.834 69.9354 147.381 70.8447 152.247 70.8447ZM152.247 63.3242C147.233 63.3242 142.859 62.292 139.123 60.2275C135.436 58.1139 132.93 55.8037 131.602 53.2969V52.9282C132.34 51.5028 133.618 50.1019 135.436 48.7256C137.255 47.3001 139.59 46.1204 142.441 45.1865C145.292 44.2035 148.56 43.7119 152.247 43.7119C155.933 43.7119 159.178 44.2035 161.979 45.1865C164.83 46.1204 167.165 47.3001 168.984 48.7256C170.802 50.1019 172.08 51.5273 172.818 53.002V53.2969C171.491 55.8529 168.959 58.1631 165.224 60.2275C161.537 62.292 157.211 63.3242 152.247 63.3242ZM152.173 38.0347C148.929 38.0347 146.226 36.855 144.063 34.4956C141.9 32.0871 140.819 29.0641 140.819 25.4268C140.819 22.1826 141.925 19.3563 144.137 16.9478C146.349 14.5392 149.027 13.335 152.173 13.335C155.368 13.335 158.072 14.5392 160.284 16.9478C162.495 19.3563 163.601 22.1826 163.601 25.4268C163.601 29.0641 162.495 32.0871 160.284 34.4956C158.121 36.855 155.417 38.0347 152.173 38.0347Z" fill="#F9F9FA"/>
</svg>
