<svg width="206" height="134" viewBox="0 0 206 134" fill="none" xmlns="http://www.w3.org/2000/svg">
<path d="M19.8058 133.271H156.281C162.573 133.271 167.414 131.6 170.806 128.258C174.197 124.965 175.893 120.172 175.893 113.88V57.1816L165.718 67.2827V114.249C165.718 117.297 164.907 119.631 163.285 121.253C161.663 122.875 159.353 123.687 156.355 123.687H19.6583C16.66 123.687 14.3497 122.875 12.7277 121.253C11.1548 119.631 10.3683 117.297 10.3683 114.249V56.3706C10.3683 50.0789 13.465 46.9331 19.6583 46.9331H132.835L142.272 37.4956H19.8058C13.465 37.4956 8.59877 39.1423 5.20717 42.4355C1.81557 45.7288 0.119766 50.5213 0.119766 56.813V113.88C0.119766 120.172 1.81557 124.965 5.20717 128.258C8.59877 131.6 13.465 133.271 19.8058 133.271ZM36.5426 94.9316C39.1478 94.9316 41.3843 93.9977 43.2521 92.1299C45.1691 90.2129 46.1276 87.9272 46.1276 85.2729C46.1276 82.6678 45.1691 80.4313 43.2521 78.5635C41.3843 76.6465 39.1478 75.688 36.5426 75.688C33.8883 75.688 31.6027 76.6465 29.6857 78.5635C27.8178 80.4313 26.8839 82.6678 26.8839 85.2729C26.8839 87.9272 27.8178 90.2129 29.6857 92.1299C31.6027 93.9977 33.8883 94.9316 36.5426 94.9316ZM66.1085 94.9316C68.7628 94.9316 71.0239 93.9977 72.8917 92.1299C74.7596 90.2129 75.6935 87.9272 75.6935 85.2729C75.6935 82.6678 74.7596 80.4313 72.8917 78.5635C71.0239 76.6465 68.7628 75.688 66.1085 75.688C63.4542 75.688 61.1932 76.6465 59.3253 78.5635C57.4575 80.4313 56.5236 82.6678 56.5236 85.2729C56.5236 87.9272 57.4575 90.2129 59.3253 92.1299C61.1932 93.9977 63.4542 94.9316 66.1085 94.9316ZM95.7482 94.9316C98.4025 94.9316 100.664 93.9977 102.531 92.1299C104.399 90.2129 105.333 87.9272 105.333 85.2729C105.333 82.6678 104.399 80.4313 102.531 78.5635C100.664 76.6465 98.4025 75.688 95.7482 75.688C93.0447 75.688 90.7345 76.6465 88.8175 78.5635C86.9497 80.4313 86.0158 82.6678 86.0158 85.2729C86.0158 87.9272 86.9497 90.2129 88.8175 92.1299C90.7345 93.9977 93.0447 94.9316 95.7482 94.9316ZM119.268 88.8857L133.13 82.5449L193.957 21.791L184.667 12.501L123.839 73.3286L117.204 86.7476C116.909 87.2882 117.007 87.8535 117.499 88.4434C118.039 89.0332 118.629 89.1807 119.268 88.8857ZM198.971 16.7036L204.058 11.5425C205.287 10.2645 205.902 8.88818 205.902 7.41357C205.951 5.93896 205.385 4.58724 204.206 3.3584L202.657 1.95752C201.576 0.826986 200.273 0.310872 198.75 0.40918C197.275 0.507487 195.972 1.14648 194.842 2.32617L189.681 7.33984L198.971 16.7036Z" fill="#F9F9FA"/>
</svg>
